<?xml version='1.0' encoding='utf-8'?>
<svg xmlns="http://www.w3.org/2000/svg" width="1136px" height="812px" version="1.1" viewBox="-32 634 1136 812"> <g> <g fill="#faf5e2"> <path d="m-32.001 633.04c-0.25444 0-0.49845 0.1011-0.67837 0.281-0.17992 0.17995-0.28099 0.4239-0.28099 0.67836l9.98e-4 812c0 0.5298 0.42952 0.9592 0.95936 0.9592l1136 1e-3c0.2544 0 0.4984-0.1011 0.6783-0.281 0.18-0.1799 0.281-0.4238 0.281-0.6782l-9e-4 -812c0-0.52984-0.4296-0.95934-0.9594-0.95934l-1136-1e-3z"/> </g> <g fill="#d6c7b2"> <path d="m669.66 1128.4-1.8e-4 3e-4 0.10339-0.8413-7.9665 180.61c-0.132 2.9944-2.6663 5.3142-5.6604 5.1822-2.9942-0.1321-5.3143-2.6665-5.1821-5.6607l7.9661-180.61c0.0125-0.2827 0.0471-0.5642 0.1034-0.8418 0.59664-2.937 3.4613-4.8342 6.3985-4.2378 2.937 0.5967 4.8344 3.4617 4.2378 6.3989z"/> <path d="m945.16 1315.7-3.5417 2.5911q-25.286 7.978-148.31 13.852-123.87 5.8792-291.81 6.7036-160.28 0.3987-256.42-4.5586-30.807-1.6052-50.761-3.664l-16.775-2.1541q-13.829-2.2585-14.011-4.8642 4.1099-8.0437 114.33-14.472 110.22-6.4288 276.29-8.3106 166.07-1.4778 276.4 2.7197 110.33 4.1975 114.6 12.156"/> <path d="m266.28 1133.7v2e-4l0.06508-0.8449-27.9 178.62c-0.46245 2.9612 1.563 5.7364 4.5241 6.1988 2.9611 0.4631 5.7367-1.5628 6.1991-4.524l27.9-178.62c0.04368-0.2793 0.06546-0.5623 0.06513-0.8452l-5e-5 -3e-4c-0.00422-2.9971-2.4372-5.4231-5.4342-5.4189-2.9971 0.0044-5.4232 2.4375-5.419 5.4343z"/> <path d="m340.98 1141.3 6e-5 3e-4 -0.1045-0.8413 8.2205 180.59c0.13626 2.9941 2.6738 5.3105 5.6678 5.1746 2.994-0.1365 5.3106-2.6741 5.1741-5.668l-8.2204-180.6c-0.01278-0.2825-0.04779-0.5639-0.10449-0.8413v-2e-4c-0.6008-2.9363-3.4681-4.8291-6.4044-4.2288-2.9361 0.6008-4.8296 3.4688-4.2287 6.405z"/> <path d="m435.8 1131.1h6e-5l-0.20474-0.8225 29.85 178.3c0.49494 2.9563 3.2923 4.9509 6.2483 4.4563 2.9559-0.4951 4.951-3.2925 4.456-6.2483l-29.85-178.3c-0.04663-0.2791-0.11518-0.5542-0.20486-0.8228l-1e-4 -2e-4c-0.94897-2.8426-4.023-4.3777-6.8659-3.429-2.8427 0.9495-4.3779 4.0239-3.4288 6.8665z"/> <path d="m308.38 937.78-3.7084-0.40376q-42.459-4.985-57.879-1.2339-17.044 2.1798-22.826 18.677-3.8266 16.364 1.4048 41.412 15.476 68.809 30.122 143.37 50.923-0.6978 199.52 2.6479l-146.64-204.47"/> <path d="m363.4 1127.4v2e-4l0.06506-0.8447-27.9 178.62c-0.46244 2.9614 1.5629 5.7361 4.524 6.199 2.9611 0.4626 5.7367-1.563 6.1992-4.524l27.9-178.62c0.0437-0.2793 0.06546-0.5618 0.06512-0.845l-6e-5 -2e-4c-0.00424-2.9969-2.4373-5.4234-5.4343-5.419-2.9971 0.0042-5.4232 2.4373-5.419 5.4344z"/> <path d="m815.05 935.07 3.3434-0.33197q25.745-3.2321 38.103 1.2618 6.9909 3.0864 9.1463 7.8603 1.3217 0.8612 2.8864 11.383 0.806 13.676-3.3053 37.211-6.3106 37.66-27.25 152.82l-70.296-0.7483-124.18 2.5093 171.55-211.96"/> </g> <g fill="#faa890"> <path d="m476.53 1261.1 2.6348 24.87q10.214 13.93 16.034 19.718 5.8406 5.5169 7.0532 6.0271 2.3792 1.6336 4.8052 2.6396 6.4592 2.4007 12.616 1.2706 2.3773-0.232 8.0161-2.003 4.845-1.6736 9.7186-3.7302-20.346-12.01-25.229-21.155-5.8272-8.5847-6.9022-32.034l-28.747 4.397"/> <path d="m422.57 1259.8-0.2982 2.424q-1.0681 7.2898-0.57642 14.428 0.84665 5.9055 1.4666 7.0428 0.77411 2.3198 2.0248 4.5932 4.389 9.1529 27.573 26.055-10.407 3.6846-17.619 4.4548-8.6331 0.628-14.073-1.9538-2.6467-1.1299-5.2961-2.8689-1.3234-0.5718-7.9526-6.3108-6.6305-6.002-18.58-20.217l5.3251-29.866 28.006 2.2193"/> </g> <g fill="#612c26"> <path d="m375.18 878.83-1.9118 0.05917q-49.344 2.7385-43.977-28.593 0.05525-1.3374 2.0877-9.5026 4.7157-15.546 11.067-39.648 4.171-11.948 7.7318-15.528 10.298-12.587 36.572-13.191 16.201 0.2788 21.753 4.3349 4.0563 2.3541 7.9086 7.9017 4.7477 2.9239 8.7365 6.4753 4.294 4.4407 5.0902 7.2069 3.209 8.7238-0.3604 22.447-2.596 9.8497-8.2971 11.047 5.6185 26.047 4.0729 36.553-1.1314 9.0947-9.2054 10.524-2.2185 0.65024-8.5701 0.27094-1.2901 0.13213-16.698-2.5734-1.4307-0.29666-5.947-0.4373-5.8324 0.0527-10.053 2.653"/> </g> <g fill="#4182bd"> <path d="m654.86 1252.3 0.09815 34.588q-16.921 0.6267-33.841 1.2539-2.3414-21.179-4.6826-42.359l38.426 6.5171"/> <path d="m752.22 1260.2-1.7542 25.466q-17.885-0.4531-35.771-0.9062 1.9756-17.694 3.9513-35.388l33.573 10.829"/> </g> <g fill="#642b27"> <path d="m673.54 833.74-0.93216-1.778q-5.4699-10.131-6.1032-15.307-5.5888-9.2475-6.5093-11.896-1.8282-4.1808-1.5621-7.3869 0.6252-7.153 11.751-12.948 0.33526-15.465 6.559-16.398 5.6709-2.0094 27.542 7.1608 19.603-4.8618 26.059-2.0929 6.9287 1.8506 13.585 15.991 12.141 5.3673 15.976 12.7 8.8196 17.936-23.438 66.302l-62.927-34.348"/> </g> <g> <path d="m742.19 1275.5 3.6424 7.0056 5.017 0.2273q2.5948 10.784 2.8827 12.822 1.6412 10.294 1.3221 12.02 0.02645 3.7935-0.7563 7.1707l-1.0428 3.2434-1.563 2.9761-2.1409 2.6787-2.7768 2.3516q-5.1349 3.4643-12.769 5.165-3.7528 0.8538-7.7458 1.2854-2.0388 0.4702-11.878 0.376-3.8723-0.178-7.3434-0.7471-4.3466-0.7051-7.7022-2.0422-1.9771-0.7981-3.3992-1.8089l-1.9213-1.7939-1.1792-2.0391q-1.4488-4.3991 1.0228-9.8474 1.1519-2.686 2.78-5.4072l8.1956-12.504 3.4323-5.8271q2.2177-3.8176 4.9351-11.54 8.988-8.6849 13.852-8.9488 4.944-0.9419 15.136 5.1834"/> <path d="m656.4 1274.2 0.64096 1.6221q4.3086 10.445 5.7396 18.731 1.3827 7.2907 1.0988 23.946-44.78 4.7688-61.647 4.8681-17.852 0.5074-42.508-3.0488-0.4112-13.801 5.7351-17.971 0.4559-0.6389 5.1101-2.9522 1.5448-0.8159 13.866-5.27l5.0111-2.1194 2.4725-1.2121q2.4483-1.2759 4.7986-2.7837 7.1803-4.2178 22.034-18.561 7.9754-0.2871 11.294 2.0779 5.2405 4.065 4.0015 8.7461 12.188 1.626 15.681 0.4351 3.9574-0.833 6.6713-6.5076"/> </g> <g fill="#18264a"> <path d="m760.16 1266.9-52.208-5.1436 2.7812-136.97-46.461-2.8738-3.8236 137.15-53.899 2.6184q-15.467-156.81-9.361-175.3 2.5046-25.14 18.247-29.229 8.8262-2.9021 27.571-5.8123 29.142-4.8037 93.425-14.076l99.101 19.824 6.5538 15.156q-1.9261 33.647-12.43 42.19-8.8015 10.02-45.487 13.498-3.2426 56.896-24.008 138.97"/> </g> <g fill="#3f80c0"> <path d="m842.93 1073.8-3.2715-1.9629-24.369-14.724q-6.0816-3.395-17.685-6.0307-18.204-4.5708-92.713-5.78 1.6492-14.408-0.82245-24.807-1.8835-9.8288-12.243-35.875l-45.236-11.771q6.1427-38.386 11.727-55.781 6.2769-17.898 15.214-22.221 5.3607-3.0882 11.565-5.067 7.2092-2.4094 19.509-5.1988l10.594-3.8372q6.9609-2.1631 19.36-3.0735 24.461-0.96574 36.72 1.6589 17.899 3.7293 23.84 7.8529 17.38 10.217 21.758 33.076 1.181 5.2843 1.8921 10.56 3.5555 36.513 4.2361 37.328 1.2137 7.2832 3.6174 16.566l16.306 89.087"/> </g> <g fill="#faa085"> <path d="m768.88 980.5 45.408-2.2974q0.68121 25.712-2.6602 42.036-4.63 23.15-11.114 28.887-3.3074 4.4702-16.596 6.9849l-95.127 13.867q-5.2661 16.318-20.994 28.163l-0.63765 10.591 5.5223 9.3926-0.78596 2.1162q-0.92774 2.6448-4.6947 1.9028-0.456 3.6831-1.5606 4.0955-0.7203 0.5522-3.8872-1.1956 0.5676 2.6822-1.1864 2.8653-1.8362 0.8286-8.4856-6.4007-1.6216 3.5459-4.0274 1.493-7.7956-13.416-8.4441-19.398-2.7545-8.334 12.412-30.194 15.403-20.48 28.964-26.412l86.696-31.03 1.1998-35.467"/> <path d="m692.37 983.51-0.42966 3.486q-4.4697 36.66-8.8157 46.336-5.953 15.048-14.311 18.709-13.533 6.9709-21.782-1.375-10.792-13.233-7.7462-34.158 1.9742-14.763 9.4704-44.73l5.8525 1.3054 14.896-47.079q-0.50554-9.9451-1.0954-15.323l-1.777-11.502q-0.12555-3.9759 0.74384-6.0525 3.7164-9.8126 13.024-16.665 7.4488-4.1284 15.77 2.5065 3.6606 4.2345 3.7895 5.4743 0.4325 1.3965-2.1053 2.4344 6.9513 8.0617 7.1265 12.998-0.04327 8.4806-4.1753 12.132-2.517 1.9293-6.5023-3.0972 2.0517 11.862 1.0435 16.208-0.6452 4.6292-6.0033 10.719l-2.953 46.007 5.9792 1.6658"/> <path d="m747.66 884.34-10.811-28.964q4.6948-1.3464 7.791-6.916 3.942-8.1208 2.2666-13.008-2.3463-5.0969-12.262-4.7174-0.9727 0.2124-1.8532 2.4126-0.95203 2.2108-3.4778 11.307l-4.0169-1.5704 0.56751-14.948q-4.7971-8.0816-5.0865-17.251-15.967 3.4031-22.212 2.6899-1.2021 0.0787-5.9779-0.91044l-12.617-4.0477q-3.0268-0.4068-3.381-0.0515-2.363 0.7917-3.244 3.8106-1.4006 4.6751-1.406 12.942-0.44134 37.263 3.5234 47.309 1.7537 5.6388 8.515 10.4l18.655 3.002 8.0984 25.369q5.2473 3.7791 7.6738 3.9021 10.612 0.50104 20.925-9.5425 7.16-6.5547 8.3303-21.216"/> </g> <g> <path d="m702.13 836.95-0.0425 0.4668q-0.2317 1.407-1.1348 2.2224-0.9091 0.81457-2.0928 0.61074-1.1273-0.2655-1.768-1.3761-0.63989-1.1181-0.45679-2.5945 0.23174-1.407 1.1347-2.2224 0.9091-0.81454 2.0929-0.61064 1.1271 0.2655 1.7678 1.376 0.2052 0.3589 0.33125 0.778l0.10295 0.42966q0.08165 0.44269 0.06515 0.92004"/> <path d="m681.48 835.92-0.03196 0.4998q-0.20577 1.5095-1.1378 2.4062-0.9384 0.89586-2.1956 0.71165-1.1992-0.25165-1.9075-1.4196-0.2269-0.37765-0.3718-0.8216l-0.12084-0.45613q-0.09869-0.47057-0.09456-0.98097 0.0477-1.5659 0.8853-2.5973 0.8375-1.0316 2.083-1.0581 1.2447 0.05235 2.0607 1.101 0.8159 1.0486 0.83106 2.6151"/> </g> <g fill="#5a281e"> <path d="m697.62 821.46c1.0453 0.03 2.1681 0.06134 3.3683 0.2126 0.96851 0.1221 1.9899 0.322 3.0932 0.6615 2.4226 0.7454 5.2017 2.1595 7.819 3.4864 0.7281 0.36907 1.019 1.2585 0.64997 1.9866-0.36917 0.72803-1.2586 1.019-1.9866 0.6499-2.6922-1.3649-5.2228-2.6426-7.3517-3.2976-0.91985-0.28314-1.7718-0.4505-2.5935-0.55414-1.0371-0.13066-2.0217-0.16009-3.0837-0.19061-0.81596-0.02345-1.4584-0.70395-1.4349-1.5199 0.0234-0.81592 0.7039-1.4583 1.5199-1.4348z"/> <path d="m685.13 822.69c-0.1546 0.7062-0.7974 1.197-1.5194 1.1599-2.1834-0.112-4.219-0.21293-6.0846-0.01164-1.8523 0.19989-3.579 0.70288-5.4466 1.2511-0.78333 0.2298-1.6046-0.21867-1.8345-1.0019-0.22993-0.78321 0.2186-1.6044 1.0019-1.8345 1.833-0.53785 3.8066-1.121 5.9621-1.3536 2.1422-0.2312 4.4215-0.1109 6.553-0.0015l-1.5195 1.1598h1.3e-4c0.17453-0.79744 0.96243-1.3022 1.7598-1.1276 0.79736 0.1746 1.3022 0.96254 1.1276 1.7599z"/> </g> <g fill="#d1634f"> <path d="m687.49 835.26c0.01684 0.09927 0.01679 0.20067-2.6e-4 0.29981-0.4773 2.7799-0.9764 5.7363-2.8888 8.7455-0.6561 1.0322-1.4731 2.0616-2.2169 3-0.69256 0.87374-1.3135 1.6588-1.7582 2.3583-0.5047 0.79425-0.6282 1.252-0.598 1.4728 0.114 0.83304 2.5106 1.363 6.6651 1.9463 0.48725 0.06834 0.8268 0.51884 0.7584 1.006-0.06845 0.48725-0.51883 0.82685-1.0061 0.75842-3.037-0.42637-7.832-0.90607-8.1827-3.4691-0.12605-0.92175 0.3553-1.8764 0.8596-2.67 0.5048-0.79431 1.1906-1.6579 1.8656-2.5095 0.75623-0.95405 1.5123-1.9092 2.1094-2.8488 1.6977-2.6713 2.1562-5.2931 2.6366-8.0912l-3e-4 0.2997c-0.08236-0.485 0.2441-0.94504 0.72916-1.0273 0.48514-0.08235 0.94504 0.24406 1.0274 0.72923z"/> <path d="m681.71 863.07v1e-4l-0.58893-0.7897c2.5408 0.91077 4.9014 1.7466 7.4791 1.674v5e-5c0.1012-0.00286 0.2024-0.0071 0.30487-0.0128 2.5307-0.1394 5.3121-1.1041 8.2533-2.1321 0.4645-0.16234 0.9726 0.08253 1.135 0.547 0.1623 0.4645-0.08267 0.9726-0.5471 1.135-2.8753 1.005-5.9106 2.0732-8.7433 2.2292-0.11813 0.00654-0.2347 0.0114-0.35263 0.0147-2.9663 0.0836-5.6386-0.8846-8.1305-1.7778-0.3372-0.12085-0.5692-0.43195-0.58895-0.78962-0.02705-0.49133 0.3493-0.91149 0.84055-0.93859 0.49136-0.02698 0.91146 0.3493 0.93856 0.84056z"/> </g> <g fill="#1a171e"> <path d="m513.39 1260.4-1.4368 0.4553q-13.775 6.1255-40.844 2.5029l-21.053-91.381-20.259 91.254q-23.828 5.8902-42.563-2.4082 1.8299-91.135 9.2575-132.06l-74.187-1.8308q-17.885-1.6528-24.109-8.6001-11.177-11.62-11.375-35.935 0.85019-20.25 13.171-46.264l105.17-5.4492 10.796 18.679q40.916 12.499 59.831 19.931 12.187 4.1875 18.316 10.923 7.911 8.0957 11.163 41.957 4.2138 41.062 8.1204 138.23"/> </g> <g fill="#fefefe"> <path d="m387.6 1044.3-1.1256 1.6956q-6.6073 9.398-7.3502 17.745-11.781-2.2837-27.137-3.0716-17.464-1.8713-39.348-11.163-16.936-7.5599-21.871-15.688-8.4324-6.7092-5.8631-73.929 0.60362-17.68 4.7596-34.21 2.8702-10.783 8.4349-18.361 12.944-16.369 44.373-23.62l7.8692-9.3344 44.59 8.1384 3.8518 4.7788q14.669 3.8972 20.308 8.5763 6.3728 5.308 8.4277 9.3272 11.869 15.787 12.883 96.073l45.4 3.1264q-2.9737 10.474-2.8207 14.247-0.13968 4.0345 2.8606 9.1759-27.483 11.489-40.209 12.463-12.907 1.8254-36.692-4.0652-4.4628 3.3513-10.065 3.6934-5.001 0.5801-21.746-0.927l10.471 5.3283"/> </g> <g fill="#faa890"> <path d="m384.66 920.1-30.483-42.384 19.983 0.6892q-4.1706-5.8542-5.7645-11.027-1.6816-4.7722-4.0621-18.809-9.4045-6.1823-11.654-11.352-1.0236-1.7356-0.2868-6.0584 0.30197-2.0088 2.6154-5.2748 2.4068-2.5915 3.8495-2.4252 2.1098-0.52137 6.8187 3.6868l8.3247-1.162q9.289-3.0552 13.115-4.763 7.9114-3.3457 18.809-10.862l11.042-11.872 0.44129 0.61182q5.0633 6.3228 5.0012 16.757 0.70943 26.089-2.5451 36.673-2.9594 11.39-10.704 20.104-4.5624 5.3671-13.68 3.548l-10.821 43.919"/> </g> <g fill="#612c26"> <path d="m373.3 878.27-1.674 0.04404q-11.116 0.33536-16.249 0.02976-4.8792-0.2588-9.1989-1.7568l6.6437-10.494 20.478 12.177"/> </g> <g fill="#faa890"> <path d="m386.89 1044.9 1.1175 0.2012q6.162 1.166 9.8482 1.0571 0.625 0.0371 2.9409-0.2776l5.0434-0.989q2.1034-0.2503 2.5405-0.1768 2.71 0.1052 4.8583 1.365 5.0334 2.9236 13.19 12.496l7.4739 12.044-26.31-8.8926q-10.999 2.5794-15.738 2.7903-4.8745 0.4036-13.102-0.9468 0.41695-8.302 1.8856-11.312 1.2438-3.2136 6.2516-7.3586"/> <path d="m483.03 1007.2 1.5299-0.2242 16.952-2.6153q4.9018-0.53487 6.9102-0.44687 2.6776 0.0367 5.0805 0.45474 0.67481 0.04696 8.1422 1.7086 1.1587 0.2256 2.3501 0.38477 1.1973 0.15343 2.4114 0.24233 5.9706 0.32804 6.6985 0.46323 1.924 0.21017 2.9693 0.81824 1.3282 0.74817 0.81035 2.566-0.66435 1.7376-3.1755 2.8013-2.9458 1.3801-13.217 0.23696l6.601 4.3192 6.4405 0.0075q2.2666-2.2055 3.5191-1.951 2.0437 1.2312 2.0752 4.1218 4.9158-1.1536 6.3545-0.7544 1.4742 0.4142 0.53256 2.5855-1.2038 3.2725-7.3677 6.2874-5.7629 2.6458-13.627 3.9138-5.7286 0.8738-10.025-0.0805-0.79775-0.0769-3.8655-1.2642-0.88309-0.2607-7.2364-3.8118l-1.9073-0.8286q-2.3816-0.9726-6.6268-1.6943l-2.8279-0.42684-8.5615 1.5279-3.8622-5.5137 2.9226-12.828"/> </g> <g> <path d="m488.24 1322.7-12.184 0.4175q-1.4992-15.29-4.5973-25.743-0.38745-2.0532-0.26303-4.363 0.59123-6.5518 6.3862-19.06 9.3512 13.957 15.552 21.074 4.4568 4.8863 5.39 5.5674 3.6716 3.3277 7.3543 5.5593 3.6826 2.2317 7.0842 3.3948 2.7225 1.1631 7.589 1.2847 5.8364-0.397 11.154-5.4177 9.3521 5.9917 12.945 8.976 4.6349 3.823 4.9608 6.0281 0.50296 1.9585-2.3173 3.3491-3.5467 1.5679-10.163 2.1433-14.506 1.0955-25.942-1.1255-7.1865-1.6987-10.297-4.3073-1.111-0.8411-1.9914-1.6975l-5.3768-5.4226q-1.4832-1.4197-5.8404-4.9124l0.55766 14.255"/> <path d="m401.7 1324.4-12.184 0.4177q-0.66629-6.7954-1.6484-12.636-1.8273-9.8921-2.9488-13.108-0.34442-1.8252-0.28438-3.8527-0.0543-5.2364 6.4076-19.57 17.365 26.301 27.478 31.691 3.8054 2.4893 8.534 4.1499 2.6317 0.9312 6.9575 1.0391 2.5939-0.1763 5.0855-1.2661 4.325-2.2214 6.069-4.1516 16.937 10.449 17.906 15.005 0.88957 4.0213-11.048 5.3516-13.754 1.4104-27.375-0.9854-6.3879-1.5097-9.5558-3.7387-0.83166-0.1365-8.4748-8.0293-1.6023-1.4668-5.4754-4.5713l0.55766 14.255"/> <path d="m431.39 1339.2-5e-5 3e-4 5e-5 -3e-4"/> </g> <g fill="#d6c7b2"> <path d="m835.45 1140.7v3e-4l-0.0662-0.845 28.152 178.58c0.4667 2.9607-1.5549 5.7388-4.5154 6.2056-2.9605 0.4668-5.7388-1.5549-6.2055-4.5156l-28.152-178.58c-0.04412-0.2796-0.06626-0.562-0.06626-0.8452v-3e-4c0-2.997 2.4296-5.4265 5.4267-5.4265 2.997 0 5.4266 2.4295 5.4266 5.4265z"/> <path d="m796.95 1140.6-3e-5 2e-4 0.10333-0.8413-7.9664 180.61c-0.13203 2.9941-2.6663 5.3142-5.6604 5.1824-2.9942-0.1321-5.3144-2.6665-5.1822-5.6607l7.9661-180.61c0.0125-0.2827 0.047-0.564 0.1034-0.8413v-3e-4c0.5967-2.937 3.4614-4.8342 6.3984-4.2373 2.937 0.5967 4.8346 3.4614 4.2378 6.3985z"/> </g> <g> <path d="m743.65 1428.9 7e-5 7e-4c2.4e-4 0.0491-0.0393 0.0894-0.0885 0.0899-0.04926 2e-4 -0.0893-0.0393-0.0896-0.0886l-1e-4 -8e-4c-3.3e-4 -0.049 0.0393-0.0893 0.0884-0.0896 0.0492-5e-4 0.0894 0.0393 0.08973 0.0884z"/> <path d="m394.63 832.31-0.00446 0.40977q0.07676 1.2447 0.78998 2.0342 0.71872 0.7894 1.7668 0.7171 1.0042-0.131 1.6602-1.0403 0.65603-0.91602 0.62774-2.2167-0.07674-1.2447-0.79007-2.0344-0.71867-0.78946-1.7668-0.7171-1.0041 0.1311-1.6601 1.0404-0.21045 0.29407-0.35724 0.6474l-0.12768 0.36477q-0.11032 0.37797-0.1384 0.7948"/> <path d="m412.69 833.26-0.0166 0.4378q0.04508 1.3316 0.7764 2.1944 0.73696 0.86265 1.8471 0.81395 1.0658-0.1125 1.7857-1.0658 0.23093-0.30846 0.39628-0.68186l0.14574-0.3862q0.12763-0.40057 0.16928-0.84497 0.09751-1.3666-0.5397-2.3384-0.63708-0.9716-1.7184-1.1054-1.0876-0.0649-1.8905 0.7751-0.80301 0.8399-0.9552 2.2014"/> </g> <g fill="#4d1e19"> <path d="m400.14 818.05c-0.84009-0.0612-1.7425-0.12804-2.7165-0.1048-0.78617 0.0187-1.6209 0.0955-2.5328 0.2772-2.0023 0.3995-4.3449 1.3054-6.5507 2.1549-0.61349 0.2363-0.91931 0.92533-0.68319 1.5389 0.23633 0.6136 0.92529 0.9194 1.5388 0.6832 2.269-0.8738 4.4013-1.6909 6.1608-2.0417 0.76023-0.1518 1.4566-0.2163 2.1235-0.2322 0.84182-0.01994 1.6331 0.0369 2.4866 0.09927 0.65576 0.04803 1.2263-0.44497 1.274-1.1006 0.04794-0.6559-0.44483-1.2262-1.1006-1.2742z"/> <path d="m410.05 820.05c0.06616 0.5787 0.54113 1.0245 1.1229 1.0538 1.7588 0.08877 3.3982 0.17417 4.8767 0.48797 1.468 0.3115 2.8107 0.85585 4.2623 1.4478 0.60885 0.2483 1.3037-0.044 1.552-0.65296 0.2482-0.60875-0.0441-1.3036-0.65301-1.5518-1.4248-0.581-2.9588-1.2096-4.6671-1.5722-1.6977-0.36036-3.5341-0.45027-5.251-0.5368l1.1227 1.0535h-2e-5c-0.07471-0.6531-0.66483-1.1221-1.3181-1.0474-0.65333 0.07463-1.1222 0.66484-1.0475 1.3181z"/> </g> <g fill="#d1634f"> <path d="m407.23 834.2c-0.02341 0.0846-0.03235 0.17253-0.02631 0.2599 0.168 2.4522 0.33924 5.0594 1.7311 7.8372 0.47744 0.95306 1.0948 1.9176 1.6566 2.7969 0.52319 0.81863 0.99209 1.5542 1.3157 2.1999 0.36738 0.73323 0.43393 1.1411 0.38822 1.3296-0.17254 0.7122-2.297 0.9598-5.9503 1.098-0.4285 0.01624-0.76258 0.37677-0.74652 0.80512 0.0163 0.42845 0.37674 0.76275 0.80523 0.7464 2.6706-0.10095 6.8701-0.0929 7.4007-2.284 0.19076-0.7879-0.14218-1.6582-0.50916-2.3907-0.36744-0.73321-0.88552-1.5426-1.3954-2.3404-0.57123-0.89407-1.1422-1.7891-1.5768-2.6563-1.2356-2.466-1.4012-4.7795-1.5702-7.2478l-0.02635 0.2598c0.11433-0.4132-0.12804-0.8408-0.5413-0.9551-0.41328-0.1143-0.84086 0.1281-0.95515 0.5414z"/> <path d="m410.63 860.27v6e-5l0.66598-0.72586c-2.6201 0.6483-5.0533 1.2401-7.6104 0.9063v4e-5c-0.10031-0.01314-0.20053-0.02759-0.30188-0.04364-2.5037-0.39563-5.1727-1.6376-7.9945-2.9587-0.44563-0.20862-0.97589-0.0166-1.1846 0.42904-0.20863 0.4456-0.01651 0.97605 0.42902 1.1845 2.7586 1.2917 5.6697 2.6624 8.472 3.1051 0.1169 0.01849 0.23242 0.03515 0.34942 0.05041 2.9425 0.38414 5.6992-0.30786 8.2688-0.94356 0.34781-0.086 0.61008-0.3719 0.66614-0.7257 0.07674-0.486-0.25506-0.9422-0.74096-1.019-0.48606-0.07667-0.94224 0.25506-1.019 0.74103z"/> </g> <g fill="#315285"> <path d="m705.85 1239.3 60.609 6.2905q-1.3229 12.745-2.6457 25.491-30.304-3.145-60.609-6.2903 1.3229-12.745 2.6456-25.491"/> <path d="m602.25 1242.6 60.845-3.305 1.3899 25.59-60.844 3.3054-1.3903-25.59"/> <path d="m452.76 854.5 5e-5 1.8e-4v1.8e-4 -1.8e-4l-5e-5 -1.8e-4 5e-5 1.8e-4v1.8e-4q0-1.8e-4 -5e-5 -3.6e-4"/> <path d="m452.76 854.5 5e-5 1.8e-4v1.8e-4 -1.8e-4l-5e-5 -1.8e-4 5e-5 1.8e-4v1.8e-4q0-1.8e-4 -5e-5 -3.6e-4"/> </g> <g fill="#f08c74"> <path d="m700.53 885.21 1.256-0.4732q8.2474-2.9499 13.053-6.3662 4.3361-2.9389 11.232-11.517l-18.722 32.298-6.8192-13.942"/> </g> <g fill="#e8725a" fill-opacity=".50588"> <path d="m395.49 876.17-0.99127-0.15412q-7.2163-1.0624-11.396-2.4479-3.5205-1.1574-9.2728-4.0507l15.469 31.6 6.1908-24.947"/> </g> <g fill="#f9f8ee"> <path d="m467.07 1234.2 5e-5 5e-4 -5e-5 -5e-4"/> </g> </g> </svg>